<mxfile host="drawio-plugin" modified="2022-12-14T11:03:23.791Z" agent="5.0 (X11; Linux x86_64) AppleWebKit/537.36 (KHTML, like Gecko) Chrome/104.0.5112.102 Safari/537.36" etag="8qxp5ISxJqCNq9hdH_qE" version="15.5.4" type="embed" pages="2"><diagram id="tW2bCmRlWpBfjO8rLPh8" name="Page-1"><mxGraphModel dx="1293" dy="341" grid="1" gridSize="10" guides="1" tooltips="1" connect="1" arrows="1" fold="1" page="1" pageScale="1" pageWidth="827" pageHeight="1169" math="0" shadow="0"><root><mxCell id="0"/><mxCell id="1" parent="0"/><mxCell id="11" value="Local" style="rounded=0;whiteSpace=wrap;html=1;fontFamily=Courier New;align=left;verticalAlign=top;spacingLeft=4;" parent="1" vertex="1"><mxGeometry x="10" y="505" width="390" height="130" as="geometry"/></mxCell><mxCell id="9" value="Core" style="rounded=0;whiteSpace=wrap;html=1;fontFamily=Courier New;align=left;verticalAlign=top;spacingLeft=4;" parent="1" vertex="1"><mxGeometry x="10" y="150" width="390" height="340" as="geometry"/></mxCell><mxCell id="Yn6jH2smHt2DL3Twa4fP-5" style="edgeStyle=orthogonalEdgeStyle;rounded=0;orthogonalLoop=1;jettySize=auto;html=1;entryX=0.5;entryY=1;entryDx=0;entryDy=0;fontFamily=Courier New;strokeWidth=3;" parent="1" source="Yn6jH2smHt2DL3Twa4fP-1" target="Yn6jH2smHt2DL3Twa4fP-3" edge="1"><mxGeometry relative="1" as="geometry"/></mxCell><mxCell id="Yn6jH2smHt2DL3Twa4fP-1" value="XML Schema" style="rounded=0;whiteSpace=wrap;html=1;fontFamily=Courier New;" parent="1" vertex="1"><mxGeometry x="240" y="540" width="120" height="60" as="geometry"/></mxCell><mxCell id="Yn6jH2smHt2DL3Twa4fP-2" value="acg --schema &amp;lt;schema&amp;gt; --target &amp;lt;target&amp;gt; --output &amp;lt;dir&amp;gt;" style="rounded=0;whiteSpace=wrap;html=1;fontFamily=Courier New;" parent="1" vertex="1"><mxGeometry x="80" y="40" width="410" height="40" as="geometry"/></mxCell><mxCell id="Yn6jH2smHt2DL3Twa4fP-6" style="edgeStyle=orthogonalEdgeStyle;rounded=0;orthogonalLoop=1;jettySize=auto;html=1;entryX=0.5;entryY=1;entryDx=0;entryDy=0;strokeWidth=3;fontFamily=Courier New;" parent="1" source="Yn6jH2smHt2DL3Twa4fP-3" target="Yn6jH2smHt2DL3Twa4fP-4" edge="1"><mxGeometry relative="1" as="geometry"/></mxCell><mxCell id="Yn6jH2smHt2DL3Twa4fP-3" value="Parse Schema" style="rounded=1;whiteSpace=wrap;html=1;fontFamily=Courier New;" parent="1" vertex="1"><mxGeometry x="240" y="400" width="120" height="60" as="geometry"/></mxCell><mxCell id="5" style="edgeStyle=orthogonalEdgeStyle;rounded=0;orthogonalLoop=1;jettySize=auto;html=1;entryX=0.5;entryY=1;entryDx=0;entryDy=0;strokeWidth=3;" parent="1" source="Yn6jH2smHt2DL3Twa4fP-4" target="3" edge="1"><mxGeometry relative="1" as="geometry"/></mxCell><mxCell id="Yn6jH2smHt2DL3Twa4fP-4" value="Semantics" style="ellipse;whiteSpace=wrap;html=1;fontFamily=Courier New;" parent="1" vertex="1"><mxGeometry x="240" y="280" width="120" height="80" as="geometry"/></mxCell><mxCell id="Yn6jH2smHt2DL3Twa4fP-14" value="architectures/&amp;lt;architecture&amp;gt;/**&lt;br&gt;&lt;br&gt;*.j2 files are processed and output to &amp;lt;dir&amp;gt; with the equivalent path and the .j2 suffix stripped.&lt;br&gt;&lt;br&gt;*.j2 files with a %E in the filename are processed separately for each entity and the entity name is substituted for the %E in the output filename.&lt;br&gt;&lt;br&gt;files without a .j2 suffix are copied verbatim.&lt;br&gt;&lt;br&gt;local architecture files are processed identically, a local architecture file with the same name and path will override the equivalent core architecture file.&lt;br&gt;&lt;br&gt;Middleware in the schema allows for insertion of business logic without having to override the templates." style="text;html=1;strokeColor=none;fillColor=none;align=left;verticalAlign=top;whiteSpace=wrap;rounded=0;fontFamily=Courier New;" parent="1" vertex="1"><mxGeometry x="440" y="280" width="310" height="330" as="geometry"/></mxCell><mxCell id="4" style="edgeStyle=orthogonalEdgeStyle;rounded=0;orthogonalLoop=1;jettySize=auto;html=1;strokeWidth=3;" parent="1" source="2" target="3" edge="1"><mxGeometry relative="1" as="geometry"/></mxCell><mxCell id="2" value="Architecture&lt;br&gt;Templates" style="rounded=0;whiteSpace=wrap;html=1;fontFamily=Courier New;" parent="1" vertex="1"><mxGeometry x="40" y="180" width="120" height="60" as="geometry"/></mxCell><mxCell id="7" style="edgeStyle=orthogonalEdgeStyle;rounded=0;orthogonalLoop=1;jettySize=auto;html=1;strokeWidth=3;" parent="1" source="3" target="6" edge="1"><mxGeometry relative="1" as="geometry"/></mxCell><mxCell id="3" value="Build" style="rounded=1;whiteSpace=wrap;html=1;fontFamily=Courier New;" parent="1" vertex="1"><mxGeometry x="240" y="180" width="120" height="60" as="geometry"/></mxCell><mxCell id="6" value="&amp;lt;output&amp;gt;" style="rounded=0;whiteSpace=wrap;html=1;fontFamily=Courier New;" parent="1" vertex="1"><mxGeometry x="440" y="180" width="120" height="60" as="geometry"/></mxCell><mxCell id="10" style="edgeStyle=orthogonalEdgeStyle;rounded=0;orthogonalLoop=1;jettySize=auto;html=1;fontFamily=Courier New;strokeWidth=3;entryX=0.25;entryY=1;entryDx=0;entryDy=0;" parent="1" source="8" target="3" edge="1"><mxGeometry relative="1" as="geometry"><Array as="points"><mxPoint x="100" y="270"/><mxPoint x="270" y="270"/></Array></mxGeometry></mxCell><mxCell id="8" value="Local Architecture&lt;br&gt;Templates" style="rounded=0;whiteSpace=wrap;html=1;fontFamily=Courier New;" parent="1" vertex="1"><mxGeometry x="40" y="540" width="120" height="60" as="geometry"/></mxCell></root></mxGraphModel></diagram><diagram id="tnP5YzHjdLrITkPKGEv4" name="Page-2"><mxGraphModel dx="1293" dy="341" grid="1" gridSize="10" guides="1" tooltips="1" connect="1" arrows="1" fold="1" page="1" pageScale="1" pageWidth="827" pageHeight="1169" math="0" shadow="0"><root><mxCell id="cAhVSX45SQMn188g3rpf-0"/><mxCell id="cAhVSX45SQMn188g3rpf-1" parent="cAhVSX45SQMn188g3rpf-0"/></root></mxGraphModel></diagram></mxfile>